# xmcd
#
# Track frame offsets:
#	150
#	16336
#	29800
#	44684
#	64611
#	81286
#	97986
#	115385
#	133602
#	148902
#	165545
#
# Disc length: 2498 seconds
# Revision: 0
# Processed by: cddbd v1.5.2PL0 Copyright (c) Steve Scherf et al.
# Submitted via: dBpowerAMP V12.0
#
DISCID=9b09c00b
DTITLE=Taylor Martin - Song Dogs
DYEAR=2018
DGENRE=Country
TTITLE0=Little Pictures
TTITLE1=Here Comes The Flood
TTITLE2=Eden Colorado
TTITLE3=Music Arcade
TTITLE4=Second Sight
TTITLE5=Hollywood
TTITLE6=Our Memories
TTITLE7=Kern River
TTITLE8=Milk And Honey
TTITLE9=Sign On The Window
TTITLE10=Song Dogs
EXTD=
EXTT0=
EXTT1=
EXTT2=
EXTT3=
EXTT4=
EXTT5=
EXTT6=
EXTT7=
EXTT8=
EXTT9=
EXTT10=
PLAYORDER=
